<svg width="500" height="346" viewBox="0 0 500 346" fill="none" xmlns="http://www.w3.org/2000/svg">
<g clip-path="url(#clip0_38_6)">
<path d="M84.4286 2.71387C83.3572 3.07101 82.2858 3.57101 81.2144 4.07101C82.0001 3.64244 83.1429 3.14244 84.4286 2.71387Z" fill="#F1F1F1"/>
<path d="M264.977 103.304L264.976 103.303L224.476 55.6698L224.857 55.3459V55.2745M264.977 103.304L224.766 55.3459L224.857 55.2745M264.977 103.304C288.087 130.343 311.251 157.381 334.374 184.372C337.695 188.249 341.015 192.125 344.334 195.999C350.628 203.351 356.921 210.695 363.211 218.037C376.842 233.945 390.462 249.841 404.048 265.77L264.977 103.304ZM224.857 55.2745C224.792 55.1913 224.623 54.9777 224.357 54.6472V55.2745H224.857ZM85.5684 2.8373L85.5498 2.84196C85.4293 2.87208 85.288 2.91886 85.1224 2.97406L85.1122 2.97744C84.965 3.02652 84.797 3.0825 84.6409 3.12263C83.6072 3.46862 82.5679 3.95292 81.4971 4.45251L81.4431 4.47771C81.4378 4.483 81.4318 4.48896 81.4249 4.49582L81.3676 4.55318L81.295 4.58946C81.0058 4.73401 80.759 4.85866 80.5143 5.04215L80.4901 5.06028L80.4639 5.07536C76.8365 7.16531 73.909 10.0608 70.921 13.0161C70.4949 13.4376 70.0675 13.8602 69.6368 14.282C69.6363 14.2824 69.6359 14.2828 69.6355 14.2832L0.500341 83.0471C0.500061 83.0669 0.500007 83.0902 0.500001 83.119C0.500457 83.1203 0.501153 83.122 0.502182 83.1242C0.507149 83.1349 0.516911 83.1499 0.532087 83.1651C0.538376 83.1714 0.544648 83.1768 0.550597 83.1812L0.60098 83.1612L0.603699 83.1601C19.1014 75.8054 37.5987 68.4509 56.0246 61.0963C57.3796 60.526 58.8485 59.9367 60.3305 59.6404L60.3384 59.6388L60.3464 59.6375C62.5183 59.2756 64.5123 59.2064 66.3107 59.8471C68.1271 60.4943 69.6754 61.8401 71.0055 64.1674C73.1457 67.9118 75.3576 71.6215 77.572 75.3263C77.7073 75.5526 77.8426 75.7789 77.9778 76.0051C80.0563 79.482 82.1332 82.9563 84.1474 86.4467L84.1489 86.4494C86.2788 90.1944 86.9594 94.2077 85.3239 98.4449C84.1564 101.502 82.9453 104.517 81.7264 107.551C81.3776 108.42 81.0281 109.289 80.6788 110.162C74.3424 126.16 67.6192 142.014 60.8968 157.866C60.1142 159.712 59.3316 161.557 58.5497 163.403C51.0497 181.104 43.6064 198.825 36.7528 216.777C29.9828 234.518 25.9379 252.357 28.1395 271.387L28.1397 271.388C29.5606 283.889 33.3961 295.604 39.7866 306.324L39.7872 306.325C49.1033 322.038 59.5319 332.669 76.0618 340.117C81.6093 342.605 88.8901 345.072 95.7857 345.072C99.6926 345.072 103.574 345.136 107.443 345.199C115.139 345.326 122.785 345.452 130.475 345.072C137.572 344.721 145.046 341.625 150.761 337.11L150.763 337.109C151.733 336.347 152.623 335.458 153.511 334.517C153.799 334.211 154.089 333.898 154.381 333.583C154.98 332.936 155.59 332.278 156.218 331.65L156.222 331.645L201.861 287.159C201.862 287.158 201.863 287.157 201.864 287.156C201.985 287.036 202.148 286.972 202.244 286.94C202.357 286.902 202.501 286.869 202.643 286.869C202.807 286.869 202.987 286.897 203.162 286.995C203.33 287.088 203.453 287.222 203.551 287.366C203.639 287.484 203.719 287.606 203.786 287.709C203.807 287.74 203.826 287.77 203.845 287.797C203.931 287.926 203.997 288.017 204.068 288.087L204.088 288.108L204.106 288.131C205.686 290.128 207.221 292.16 208.753 294.189C211.961 298.438 215.157 302.671 218.724 306.525C234.165 323.173 252.658 334.905 274.566 341.163L274.566 341.163C285.712 344.357 297.083 344.929 308.643 344.929H308.644C371.501 345.072 436.502 345.286 499.359 345.5H499.422C499.423 345.5 499.425 345.499 499.427 345.498C499.438 345.493 499.453 345.483 499.468 345.468C499.481 345.455 499.49 345.442 499.496 345.431C499.495 345.431 499.495 345.43 499.495 345.43C499.486 345.417 499.473 345.399 499.449 345.374C499.444 345.368 499.438 345.361 499.432 345.355C499.384 345.328 499.331 345.289 499.282 345.234C497.455 344.291 495.611 343.369 493.764 342.446C489.397 340.264 485.016 338.074 480.818 335.576C480.817 335.576 480.817 335.575 480.816 335.575L481.071 335.145C466.357 326.504 453.429 315.507 440.929 304.08L85.5684 2.8373ZM85.5684 2.8373L85.5867 2.83123L85.5684 2.8373ZM94.482 0.925844C94.4826 0.92578 94.4832 0.925716 94.4838 0.925651L94.4286 0.428708L94.4804 0.926018C94.4809 0.92596 94.4815 0.925902 94.482 0.925844ZM117.714 39.2014L117.714 39.2013C117.64 31.9243 111.627 25.9948 104.214 25.9948C96.7936 25.9948 90.9286 31.862 90.9286 39.3492C90.9286 46.8383 96.8668 52.7751 104.357 52.7752L104.362 52.7751C111.779 52.701 117.788 46.6213 117.714 39.2014ZM174.586 241.265C174.612 241.255 174.636 241.245 174.654 241.236L174.73 241.211C175.218 241.048 175.429 240.581 175.429 240.094C175.429 239.994 175.404 239.913 175.386 239.864C175.373 239.831 175.359 239.801 175.349 239.781C175.327 239.645 175.266 239.546 175.237 239.504C175.222 239.48 175.207 239.46 175.193 239.444L125.683 156.063C125.669 156.023 125.651 155.986 125.632 155.954C125.621 155.935 125.609 155.919 125.599 155.905L125.59 155.887C125.482 155.671 125.294 155.553 125.158 155.493C125.017 155.43 124.858 155.397 124.714 155.397C124.296 155.397 123.883 155.666 123.74 156.096L123.714 156.173V156.254V156.254V156.255V156.255V156.255V156.256V156.256V156.257V156.257V156.257V156.258V156.258V156.259V156.259V156.259V156.26V156.26V156.261V156.261V156.261V156.262V156.262V156.262V156.263V156.263V156.264V156.264V156.264V156.265V156.265V156.266V156.266V156.266V156.267V156.267V156.267V156.268V156.268V156.268V156.269V156.269V156.27V156.27V156.27V156.271V156.271V156.271V156.272V156.272V156.272V156.273V156.273V156.273V156.274V156.274V156.274V156.275V156.275V156.275V156.276V156.276V156.276V156.277V156.277V156.277V156.278V156.278V156.278V156.279V156.279V156.279V156.279V156.28V156.28V156.28V156.281V156.281V156.281V156.282V156.282V156.282V156.282V156.283V156.283V156.283V156.284V156.284V156.284V156.285V156.285V156.285V156.285V156.286V156.286V156.286V156.287V156.287V156.287V156.287V156.288V156.288V156.288V156.288V156.289V156.289V156.289V156.289V156.29V156.29V156.29V156.291V156.291V156.291V156.291V156.292V156.292V156.292V156.292V156.293V156.293V156.293V156.293V156.294V156.294V156.294V156.294V156.294V156.295V156.295V156.295V156.295V156.296V156.296V156.296V156.296V156.297V156.297V156.297V156.297V156.297V156.298V156.298V156.298V156.298V156.299V156.299V156.299V156.299V156.299V156.3V156.3V156.3V156.3V156.3V156.301V156.301V156.301V156.301V156.301V156.302V156.302V156.302V156.302V156.302V156.303V156.303V156.303V156.303V156.303V156.304V156.304V156.304V156.304V156.304V156.305V156.305V156.305V156.305V156.305V156.305V156.306V156.306V156.306V156.306V156.306V156.306V156.307V156.307V156.307V156.307V156.307V156.307V156.308V156.308V156.308V156.308V156.308V156.308V156.309V156.309V156.309V156.309V156.309V156.309V156.31V156.31V156.31V156.31V156.31V156.31V156.31V156.311V156.311V156.311V156.311V156.311V156.311V156.311V156.312V156.312V156.312V156.312V156.312V156.312V156.312V156.313V156.313V156.313V156.313V156.313V156.313V156.313V156.313V156.314V156.314V156.314V156.314V156.314V156.314V156.314V156.314V156.315V156.315V156.315V156.315V156.315V156.316V156.316V156.316V156.316V156.316V156.317V156.317V156.317V156.317V156.317V156.318V156.318V156.318V156.318V156.318V156.319V156.319V156.319V156.319V156.319V156.319V156.32V156.32V156.32V156.32V156.32V156.32V156.32V156.321V156.321V156.321V156.321V156.321V156.321V156.321V156.321V156.322V156.322C123.714 156.325 123.711 156.338 123.701 156.364C123.686 156.406 123.662 156.454 123.624 156.53C123.56 156.658 123.531 156.781 123.515 156.847C123.496 156.924 123.489 156.943 123.481 156.958L123.468 156.985L123.458 157.013C122.504 159.668 121.553 162.318 120.604 164.964C117.647 173.213 114.701 181.429 111.674 189.645C109.649 195.067 108.855 200.632 109.072 206.334C109.58 221.107 118.568 233.351 132.395 238.49C138.593 240.822 145.033 241.007 151.339 241.187C151.889 241.203 152.437 241.219 152.984 241.236C157.891 241.389 162.838 241.36 167.785 241.331C169.762 241.319 171.74 241.308 173.714 241.308H174.357C174.457 241.308 174.537 241.283 174.586 241.265ZM86.7143 1.99981L86.85 2.48104C86.8536 2.48001 86.8573 2.47899 86.8609 2.47796C86.8648 2.4767 86.8686 2.47543 86.8724 2.47416L86.7143 1.99981Z" stroke="#CFCFCF"/>
</g>
<defs>
<clipPath id="clip0_38_6">
<rect width="500" height="346" fill="white"/>
</clipPath>
</defs>
</svg>
