<?xml version="1.0" encoding="utf-8"?>
<!-- Generator: Adobe Illustrator 27.8.0, SVG Export Plug-In . SVG Version: 6.00 Build 0)  -->
<svg version="1.1" id="Layer_1" xmlns="http://www.w3.org/2000/svg" xmlns:xlink="http://www.w3.org/1999/xlink" x="0px" y="0px"
	 viewBox="0 0 500 346" style="enable-background:new 0 0 500 346;" xml:space="preserve">
<style type="text/css">
	.st0{clip-path:url(#SVGID_00000067939959179900043450000003136816670979693955_);}
	.st1{fill:#F1F1F1;}
</style>
<g>
	<defs>
		<rect id="SVGID_1_" width="500" height="346"/>
	</defs>
	<clipPath id="SVGID_00000139252333600152890940000006897011705030426302_">
		<use xlink:href="#SVGID_1_"  style="overflow:visible;"/>
	</clipPath>
	<g style="clip-path:url(#SVGID_00000139252333600152890940000006897011705030426302_);">
		<path class="st1" d="M84.4,2.7c-1.1,0.4-2.1,0.9-3.2,1.4C82,3.6,83.1,3.1,84.4,2.7z"/>
		<path class="st1" d="M499.7,344.9C499.7,344.9,499.6,344.9,499.7,344.9c-6.3-3.3-12.6-6.2-18.6-9.8c-14.7-8.6-27.6-19.6-40.1-31.1
			c-13.1-12-25-25.1-36.5-38.6c-19.9-23.3-39.8-46.5-59.7-69.8c-26.4-30.9-52.9-61.8-79.4-92.7l-40.5-47.6c0,0,0,0,0-0.1
			c-1.3-1.6-42.9-54-74-54.8c-33.5-0.9-53-0.4-56.4,0c-1.9,0.2-4.9,0.8-7.7,1.6c-0.4,0.1-0.9,0.2-1.3,0.4c-0.3,0.1-0.6,0.2-0.9,0.3
			C83.4,3,82.4,3.5,81.3,4c-0.1,0-0.1,0.1-0.2,0.1c-0.3,0.1-0.6,0.3-0.9,0.5c-4.2,2.4-7.5,5.9-10.9,9.3L0.1,82.7
			C0,82.8,0,82.9,0,83.1c0,0.3,0.3,0.6,0.6,0.6c0.1,0,0.1,0,0.2-0.1c18.5-7.4,37-14.7,55.4-22.1c1.4-0.6,2.8-1.1,4.2-1.4
			c4.3-0.7,7.6-0.2,10.1,4.3c4.3,7.5,8.9,14.9,13.1,22.3c2.1,3.6,2.7,7.5,1.1,11.6c-1.5,3.9-3.1,7.8-4.6,11.7
			C66.1,145.7,50,180.7,36.3,216.6c-6.8,17.8-10.9,35.7-8.6,54.8c1.4,12.6,5.3,24.4,11.7,35.1c9.4,15.8,19.9,26.5,36.5,34
			c5.6,2.5,12.9,5,19.9,5c11.6,0,23.1,0.6,34.7,0c7.2-0.4,14.8-3.5,20.6-8.1c2-1.6,3.6-3.6,5.5-5.5l45.6-44.5
			c0.1-0.1,0.3-0.1,0.4-0.1c0.2,0,0.4,0.1,0.5,0.3c0.2,0.3,0.4,0.6,0.6,0.8c4.9,6.1,9.4,12.7,14.6,18.4
			c15.5,16.7,34.1,28.5,56.1,34.8c11.2,3.2,22.6,3.8,34.2,3.8c62.9,0.1,127.9,0.4,190.7,0.6h0.1c0.3,0,0.6-0.3,0.6-0.6
			C500,345.2,499.9,345.1,499.7,344.9z M91.4,39.3c0-7.2,5.6-12.9,12.8-12.9c7.1,0,12.9,5.7,13,12.7c0.1,7.1-5.7,13-12.9,13.1
			C97.1,52.3,91.4,46.6,91.4,39.3z M174.6,240.7c-0.1,0-0.1,0.1-0.2,0.1h-0.6c-6.9,0-13.9,0.1-20.7-0.1c-6.9-0.2-13.8-0.2-20.4-2.7
			c-13.6-5.1-22.5-17.1-23-31.7c-0.2-5.6,0.6-11.1,2.6-16.5c4-10.9,7.9-21.7,11.8-32.6c0.1-0.1,0.1-0.3,0.1-0.4
			c0.1-0.1,0.1-0.3,0.1-0.4c0,0,0,0,0-0.1c0.1-0.2,0.3-0.4,0.5-0.4c0.1,0,0.4,0.1,0.4,0.2c0,0.1,0.1,0.1,0.1,0.1l49.6,83.5
			c0,0,0.1,0.1,0.1,0.1c0,0.1,0.1,0.1,0.1,0.2C174.9,240.5,174.8,240.7,174.6,240.7z"/>
	</g>
</g>
</svg>
