<svg width="500" height="346" viewBox="0 0 500 346" fill="none" xmlns="http://www.w3.org/2000/svg">
<g clip-path="url(#clip0_38_2)">
<path d="M84.4286 2.71387C83.3572 3.07101 82.2858 3.57101 81.2144 4.07101C82.0001 3.64244 83.1429 3.14244 84.4286 2.71387Z" fill="#F1F1F1"/>
<path d="M499.714 344.929C499.714 344.929 499.643 344.929 499.643 344.858C493.429 341.644 487.071 338.716 481.071 335.145C466.357 326.504 453.429 315.507 440.929 304.08C427.786 292.083 415.929 278.943 404.429 265.445C384.571 242.165 364.643 218.955 344.714 195.674C318.286 164.823 291.786 133.901 265.357 102.979L224.857 55.3459C224.857 55.3459 224.857 55.3459 224.857 55.2745C223.571 53.632 181.929 1.28567 150.857 0.428708C117.357 -0.499672 97.8571 0.071639 94.4286 0.428708C92.5 0.64295 89.5 1.21426 86.7143 1.99981C86.2857 2.14264 85.8571 2.21405 85.4286 2.35688C85.1429 2.4283 84.7857 2.57112 84.5 2.64254C83.4286 2.99961 82.3571 3.4995 81.2857 3.9994C81.2143 3.9994 81.1429 4.07081 81.0714 4.14223C80.7857 4.28505 80.5 4.42788 80.2143 4.64212C76 7.07019 72.7143 10.5695 69.2857 13.9259L0.142857 82.6974C0 82.7689 0 82.9117 0 83.1259C0 83.4116 0.285714 83.6972 0.571429 83.6972C0.642857 83.6972 0.714286 83.6972 0.785714 83.6258C19.2857 76.2702 37.7857 68.9146 56.2143 61.5589C57.5714 60.9876 59 60.4163 60.4286 60.1307C64.7143 59.4165 68 59.9164 70.5714 64.4155C74.8571 71.9139 79.4286 79.2696 83.7143 86.6966C85.7857 90.3387 86.4286 94.1951 84.8571 98.2657C83.3571 102.193 81.7857 106.05 80.2143 109.978C66.0714 145.684 50 180.677 36.2857 216.598C29.5 234.38 25.4286 252.305 27.6429 271.444C29.0714 284.013 32.9286 295.796 39.3571 306.58C48.7143 322.362 59.2143 333.074 75.8571 340.573C81.4286 343.072 88.7857 345.572 95.7857 345.572C107.429 345.572 118.929 346.143 130.5 345.572C137.714 345.215 145.286 342.072 151.071 337.502C153.071 335.931 154.714 333.86 156.571 332.003L202.214 287.512C202.286 287.441 202.5 287.369 202.643 287.369C202.857 287.369 203 287.441 203.143 287.655C203.357 287.941 203.5 288.226 203.714 288.441C208.571 294.582 213.071 301.152 218.357 306.865C233.857 323.576 252.429 335.36 274.429 341.644C285.643 344.858 297.071 345.429 308.643 345.429C371.5 345.572 436.5 345.786 499.357 346H499.429C499.714 346 500 345.715 500 345.429C500 345.215 499.857 345.072 499.714 344.929ZM91.4286 39.3492C91.4286 32.1364 97.0714 26.4948 104.214 26.4948C111.357 26.4948 117.143 32.2079 117.214 39.2064C117.286 46.3478 111.5 52.2037 104.357 52.2751C97.1429 52.2751 91.4286 46.562 91.4286 39.3492ZM174.571 240.736C174.5 240.736 174.429 240.808 174.357 240.808H173.714C166.786 240.808 159.857 240.95 153 240.736C146.143 240.522 139.214 240.522 132.571 238.023C118.929 232.952 110.071 220.883 109.571 206.315C109.357 200.673 110.143 195.174 112.143 189.818C116.143 178.963 120 168.108 123.929 157.182C124 157.039 124 156.896 124.071 156.754C124.143 156.611 124.214 156.468 124.214 156.325C124.214 156.325 124.214 156.325 124.214 156.254C124.286 156.039 124.5 155.897 124.714 155.897C124.857 155.897 125.071 155.968 125.143 156.111C125.143 156.182 125.214 156.182 125.214 156.254L174.786 239.736C174.786 239.736 174.857 239.808 174.857 239.879C174.857 239.951 174.929 240.022 174.929 240.094C174.929 240.451 174.786 240.665 174.571 240.736Z" fill="#F1F1F1"/>
</g>
<defs>
<clipPath id="clip0_38_2">
<rect width="500" height="346" fill="white"/>
</clipPath>
</defs>
</svg>
