<?xml version="1.0" encoding="utf-8"?>
<!-- Generator: Adobe Illustrator 27.8.0, SVG Export Plug-In . SVG Version: 6.00 Build 0)  -->
<svg version="1.1" id="Layer_2_00000013161770274270946590000006199480890096390584_"
	 xmlns="http://www.w3.org/2000/svg" xmlns:xlink="http://www.w3.org/1999/xlink" x="0px" y="0px" viewBox="0 0 700 484.5"
	 style="enable-background:new 0 0 700 484.5;" xml:space="preserve">
<style type="text/css">
	.st0{fill:#222222;}
	.st1{fill:#EC5332;}
</style>
<g id="Layer_1-2">
	<path class="st0" d="M118.2,3.8c-1.5,0.5-3,1.2-4.5,1.9C114.8,5.1,116.4,4.4,118.2,3.8z"/>
	<path class="st1" d="M699.6,483c0,0-0.1,0-0.1-0.1c-8.7-4.5-17.6-8.6-26-13.6c-20.6-12.1-38.7-27.5-56.2-43.5
		c-18.4-16.8-35-35.2-51.1-54.1c-27.8-32.6-55.7-65.1-83.6-97.7c-37-43.2-74.1-86.5-111.1-129.8l-56.7-66.7l0,0c0,0,0,0,0-0.1
		C313,75.1,254.7,1.8,211.2,0.6c-46.9-1.3-74.2-0.5-79,0c-2.7,0.3-6.9,1.1-10.8,2.2c-0.6,0.2-1.2,0.3-1.8,0.5
		c-0.4,0.1-0.9,0.3-1.3,0.4c-1.5,0.5-3,1.2-4.5,1.9c-0.1,0-0.2,0.1-0.3,0.2c-0.4,0.2-0.8,0.4-1.2,0.7c-5.9,3.4-10.5,8.3-15.3,13
		L0.2,115.8C0,115.9,0,116.1,0,116.4c0,0.4,0.4,0.8,0.8,0.8c0.1,0,0.2,0,0.3-0.1C27,106.8,52.9,96.5,78.7,86.2
		c1.9-0.8,3.9-1.6,5.9-2c6-1,10.6-0.3,14.2,6c6,10.5,12.4,20.8,18.4,31.2c2.9,5.1,3.8,10.5,1.6,16.2c-2.1,5.5-4.3,10.9-6.5,16.4
		C92.5,204,70,253,50.8,303.3c-9.5,24.9-15.2,50-12.1,76.8c2,17.6,7.4,34.1,16.4,49.2c13.1,22.1,27.8,37.1,51.1,47.6
		c7.8,3.5,18.1,7,27.9,7c16.3,0,32.4,0.8,48.6,0c10.1-0.5,20.7-4.9,28.8-11.3c2.8-2.2,5.1-5.1,7.7-7.7l63.9-62.3
		c0.1-0.1,0.4-0.2,0.6-0.2c0.3,0,0.5,0.1,0.7,0.4c0.3,0.4,0.5,0.8,0.8,1.1c6.8,8.6,13.1,17.8,20.5,25.8
		c21.7,23.4,47.7,39.9,78.5,48.7c15.7,4.5,31.7,5.3,47.9,5.3c88,0.2,179,0.5,267,0.8h0.1c0.4,0,0.8-0.4,0.8-0.8
		C700,483.4,699.8,483.2,699.6,483L699.6,483z M128,55.1c0-10.1,7.9-18,17.9-18s18.1,8,18.2,17.8c0.1,10-8,18.2-18,18.3
		C136,73.2,128,65.2,128,55.1z M244.4,337.1c-0.1,0-0.2,0.1-0.3,0.1h-0.9c-9.7,0-19.4,0.2-29-0.1c-9.6-0.3-19.3-0.3-28.6-3.8
		c-19.1-7.1-31.5-24-32.2-44.4c-0.3-7.9,0.8-15.6,3.6-23.1c5.6-15.2,11-30.4,16.5-45.7c0.1-0.2,0.1-0.4,0.2-0.6
		c0.1-0.2,0.2-0.4,0.2-0.6c0,0,0,0,0-0.1c0.1-0.3,0.4-0.5,0.7-0.5c0.2,0,0.5,0.1,0.6,0.3c0,0.1,0.1,0.1,0.1,0.2l69.4,116.9
		c0,0,0.1,0.1,0.1,0.2s0.1,0.2,0.1,0.3C244.9,336.7,244.7,337,244.4,337.1L244.4,337.1z"/>
</g>
</svg>
